<svg id="Capa_1" data-name="Capa 1" xmlns="http://www.w3.org/2000/svg" viewBox="0 0 84.62 90.84"><defs><style>.cls-1{fill:#d62025;}</style></defs><title>isotipo</title><path class="cls-1" d="M5.13,61.31C8.31,58.05,17,52,27.59,52c.3,0,.61,0,.91,0L28.33,20h9.05a26.06,26.06,0,0,1,10.51,2.29C56.78,26.16,61.12,36,61.44,45.2c.29,8.42-1.72,17.37-10,21.8-5.62,3-9.16,2-9.33,2.67,0,.45,2.23,1.18,6.15.93,9.53-.63,19.45-3.5,26.39-10,.79-.75,1.55-1.54,2.28-2.36a34.2,34.2,0,0,0,3.94-5.47,27.07,27.07,0,0,0,3.74-12.91A38.28,38.28,0,0,0,79,19.93,38.26,38.26,0,0,0,63.14,5.21,51.11,51.11,0,0,0,39.62,0H16A13,13,0,0,0,2.8,12.75L3,64.24A12.93,12.93,0,0,1,5.13,61.31Z"/><path class="cls-1" d="M79.05,66.69c-1.12,2.24-7.57,10.89-17.73,15.61a43.29,43.29,0,0,1-7.43,2.81A68,68,0,0,1,34.52,87c-3.6-.12-7.18-.53-10.77-.77h-.1c-1.35-.09-2.68-.16-4-.2l-1.29,0H15.82l-.56,0-.7,0-.57,0-.68,0-.56.06-.66.07-.57.08-.64.09-.56.1-.63.12-.56.12c-.21,0-.41.09-.62.15L8,87.12l-.61.17-.53.17-.61.21-.51.19-.61.25-.5.21c-.21.09-.41.2-.62.3a4.93,4.93,0,0,0-.46.23l-.63.35c-.14.08-.29.15-.43.24l-.69.44-.35.22c-.34.23-.68.48-1,.74A26.39,26.39,0,0,1,0,85.6,27.91,27.91,0,0,1,8.42,65.33C14,60,20.55,56,30,56.81a12.81,12.81,0,0,1,2.59.53c1.6.46,3.16,1,4.76,1.52l.32.09a25.67,25.67,0,0,0,3.24.72,23.53,23.53,0,0,0,3.35.28,25.46,25.46,0,0,0,4.28-.32,7.38,7.38,0,0,1,1.92-.24c1.1,0,1.23,1.65.57,2.34a7.28,7.28,0,0,1-2.46,1.75A23.47,23.47,0,0,1,41,65.38c-2.82.32-5,.45-5.8,2.83-1.36,4.06,6,6.51,9,6.84a39.47,39.47,0,0,0,4.35.21c8-.05,17.88-1.82,24.46-7a32.78,32.78,0,0,0,2.56-2.11c.28-.27.45-.45.8-.83C77.94,63.66,79.72,65.34,79.05,66.69Z"/></svg>